<?xml version="1.0" encoding="UTF-8"?>
<svg xmlns="http://www.w3.org/2000/svg" xmlns:xlink="http://www.w3.org/1999/xlink" width="111px" height="40px" viewBox="0 0 55 20" version="1.1">
<g id="surface1">
<path style=" stroke:none;fill-rule:evenodd;fill:rgb(14.901961%,14.901961%,20.784314%);fill-opacity:1;" d="M 25.929688 9.273438 C 25.929688 11.007812 26.898438 12.695312 29.261719 12.695312 C 31.78125 12.695312 32.753906 10.871094 32.753906 9.273438 C 32.753906 5.023438 26.574219 6.949219 26.574219 3.132812 C 26.574219 1.703125 27.476562 0.308594 29.332031 0.308594 C 31.085938 0.308594 32.191406 1.308594 32.191406 3.042969 L 32.191406 3.335938 L 32.53125 3.335938 L 32.53125 3.078125 C 32.53125 1.632812 31.730469 0 29.367188 0 C 26.984375 0 26.234375 1.875 26.234375 3.0625 C 26.234375 5.144531 27.59375 5.726562 29.433594 6.3125 C 30.863281 6.777344 32.410156 7.292969 32.410156 9.1875 C 32.410156 11.40625 30.949219 12.386719 29.246094 12.386719 C 27.339844 12.386719 26.269531 11.148438 26.269531 9.273438 L 26.269531 8.738281 L 25.929688 8.738281 Z M 38.011719 12.488281 L 43.679688 12.488281 L 43.679688 12.179688 L 38.351562 12.179688 L 38.351562 6.226562 L 43.167969 6.226562 L 43.167969 5.917969 L 38.351562 5.917969 L 38.351562 0.515625 L 43.542969 0.515625 L 43.542969 0.207031 L 38.011719 0.207031 Z M 51.335938 12.488281 L 51.335938 0.515625 L 48.035156 0.515625 L 48.035156 0.207031 L 54.980469 0.207031 L 54.980469 0.515625 L 51.675781 0.515625 L 51.675781 12.488281 Z M 3.660156 0.207031 L 4.972656 0.207031 C 4.320312 0.871094 3.734375 1.597656 3.222656 2.375 L 3.664062 0.207031 Z M 4.285156 4.742188 C 4.820312 3.53125 5.609375 2.398438 6.625 1.375 C 7.042969 0.949219 7.492188 0.558594 7.972656 0.207031 L 10.046875 0.207031 C 9.058594 0.667969 8.160156 1.300781 7.394531 2.078125 C 6.628906 2.851562 6.015625 3.699219 5.570312 4.597656 C 5.140625 5.464844 4.882812 6.359375 4.800781 7.25 C 4.628906 9.054688 5.207031 10.722656 6.417969 11.949219 C 6.671875 12.203125 6.949219 12.429688 7.25 12.621094 L 5.105469 12.621094 C 4.625 12.078125 4.242188 11.449219 3.972656 10.773438 C 3.664062 9.984375 3.507812 9.132812 3.507812 8.242188 C 3.507812 7.085938 3.769531 5.90625 4.285156 4.742188 Z M 3.097656 8.242188 C 3.097656 9.1875 3.265625 10.089844 3.59375 10.921875 C 3.835938 11.535156 4.164062 12.109375 4.570312 12.621094 L 2.75 12.621094 C 2.550781 12.28125 2.375 11.925781 2.230469 11.558594 C 1.992188 10.953125 1.824219 10.316406 1.742188 9.671875 L 2.976562 3.585938 C 3.578125 2.457031 4.375 1.394531 5.34375 0.414062 C 5.414062 0.34375 5.484375 0.273438 5.554688 0.207031 L 7.304688 0.207031 C 6.964844 0.480469 6.644531 0.773438 6.335938 1.082031 C 5.285156 2.144531 4.46875 3.320312 3.914062 4.574219 C 3.371094 5.789062 3.097656 7.023438 3.097656 8.242188 Z M 13.574219 8.265625 C 13.1875 8.660156 12.722656 8.964844 12.210938 9.160156 L 12.34375 8.511719 C 12.695312 8.359375 13.015625 8.140625 13.289062 7.867188 C 13.742188 7.40625 14.015625 6.839844 14.0625 6.261719 C 14.109375 5.683594 13.921875 5.152344 13.539062 4.765625 C 13.425781 4.652344 13.300781 4.558594 13.160156 4.480469 L 13.300781 3.785156 C 13.578125 3.890625 13.828125 4.050781 14.035156 4.261719 C 14.472656 4.703125 14.707031 5.261719 14.707031 5.882812 C 14.707031 6.683594 14.304688 7.53125 13.574219 8.265625 Z M 13.65625 6.230469 C 13.617188 6.710938 13.386719 7.1875 13 7.574219 C 12.835938 7.742188 12.648438 7.886719 12.449219 8.003906 L 13.074219 4.910156 C 13.136719 4.953125 13.195312 5 13.25 5.054688 C 13.546875 5.355469 13.691406 5.773438 13.65625 6.230469 Z M 15.113281 5.878906 C 15.113281 5.152344 14.839844 4.492188 14.324219 3.972656 C 14.058594 3.707031 13.738281 3.503906 13.386719 3.382812 L 13.542969 2.59375 C 14.054688 2.71875 14.519531 2.984375 14.890625 3.355469 C 16.308594 4.789062 16.042969 7.214844 14.269531 9.003906 C 13.585938 9.695312 12.78125 10.171875 11.960938 10.390625 L 12.117188 9.628906 C 12.75 9.4375 13.355469 9.066406 13.863281 8.558594 C 14.667969 7.742188 15.113281 6.792969 15.113281 5.882812 Z M 1.851562 11.710938 C 1.976562 12.023438 2.121094 12.328125 2.28125 12.625 L 1.140625 12.625 L 1.527344 10.71875 C 1.617188 11.054688 1.722656 11.386719 1.851562 11.710938 Z M 7.03125 3.09375 C 7.234375 2.84375 7.449219 2.605469 7.683594 2.371094 C 8.71875 1.324219 9.925781 0.597656 11.15625 0.207031 L 12.300781 0.207031 L 12.171875 0.859375 C 10.75 1.070312 9.363281 1.792969 8.25 2.917969 C 8.191406 2.976562 8.136719 3.035156 8.082031 3.09375 Z M 14.554688 9.292969 C 16.492188 7.339844 16.761719 4.664062 15.179688 3.066406 C 14.753906 2.636719 14.214844 2.332031 13.628906 2.191406 L 13.8125 1.28125 C 14.613281 1.421875 15.34375 1.777344 15.921875 2.359375 C 16.695312 3.140625 17.109375 4.101562 17.148438 5.171875 C 17.15625 5.460938 17.140625 5.75 17.101562 6.039062 C 16.910156 7.359375 16.207031 8.6875 15.121094 9.78125 C 14.164062 10.75 12.9375 11.414062 11.707031 11.65625 L 11.871094 10.835938 C 12.824219 10.625 13.769531 10.089844 14.554688 9.292969 Z M 10.65625 4.867188 C 10.566406 4.933594 10.484375 5.011719 10.40625 5.089844 C 9.863281 5.636719 9.5625 6.300781 9.5625 6.957031 C 9.5625 7.257812 9.628906 7.539062 9.753906 7.792969 L 9.027344 7.792969 C 8.972656 7.582031 8.941406 7.359375 8.945312 7.140625 C 8.945312 6.363281 9.292969 5.542969 9.902344 4.867188 Z M 11.820312 2.589844 L 11.71875 3.09375 L 10.523438 3.09375 C 10.929688 2.859375 11.363281 2.691406 11.820312 2.589844 Z M 16.207031 2.070312 C 15.722656 1.578125 15.121094 1.214844 14.460938 1.015625 C 14.273438 0.957031 14.085938 0.910156 13.894531 0.875 L 14.03125 0.207031 L 15.21875 0.207031 C 15.871094 0.445312 16.460938 0.824219 16.953125 1.320312 C 17.457031 1.824219 17.851562 2.425781 18.113281 3.09375 L 17.570312 3.09375 L 17.378906 4.039062 L 17.359375 3.976562 C 17.144531 3.265625 16.757812 2.625 16.207031 2.070312 Z M 18.550781 3.09375 C 18.269531 2.316406 17.824219 1.609375 17.242188 1.027344 C 16.921875 0.707031 16.5625 0.429688 16.171875 0.207031 L 18.394531 0.207031 C 19.144531 1.019531 19.675781 2.011719 19.933594 3.09375 Z M 11.910156 2.152344 C 11.160156 2.289062 10.425781 2.613281 9.765625 3.09375 L 8.65625 3.09375 C 9.675781 2.109375 10.890625 1.5 12.082031 1.289062 Z M 10.382812 9.679688 L 10.222656 10.441406 C 9.691406 10.316406 9.199219 10.054688 8.800781 9.675781 L 10.382812 9.675781 Z M 6.527344 7.617188 C 6.527344 6.691406 6.789062 5.75 7.28125 4.867188 L 8.152344 4.867188 C 7.6875 5.652344 7.429688 6.519531 7.429688 7.363281 C 7.429688 7.511719 7.4375 7.652344 7.453125 7.792969 L 6.53125 7.792969 C 6.53125 7.734375 6.527344 7.675781 6.527344 7.617188 Z M 10.140625 10.84375 L 9.964844 11.710938 C 9.082031 11.578125 8.308594 11.191406 7.699219 10.574219 C 7.433594 10.308594 7.210938 10.007812 7.035156 9.675781 L 8.238281 9.675781 C 8.730469 10.265625 9.398438 10.675781 10.140625 10.84375 Z M 5.203125 7.285156 C 5.335938 5.902344 5.929688 4.5 6.90625 3.25 L 6.582031 4.863281 L 6.820312 4.863281 C 6.363281 5.753906 6.121094 6.691406 6.121094 7.617188 C 6.121094 7.675781 6.125 7.734375 6.125 7.792969 L 5.980469 7.792969 L 5.609375 9.675781 L 6.578125 9.675781 C 6.785156 10.117188 7.066406 10.519531 7.410156 10.867188 C 8.078125 11.539062 8.921875 11.964844 9.878906 12.113281 L 9.773438 12.621094 L 8.113281 12.621094 C 7.589844 12.390625 7.113281 12.066406 6.707031 11.65625 C 5.582031 10.519531 5.046875 8.96875 5.203125 7.285156 Z M 7.839844 7.363281 C 7.839844 6.515625 8.121094 5.644531 8.632812 4.867188 L 9.371094 4.867188 C 9.15625 5.136719 8.980469 5.433594 8.839844 5.746094 C 8.636719 6.207031 8.535156 6.675781 8.535156 7.140625 C 8.535156 7.363281 8.5625 7.585938 8.609375 7.792969 L 7.863281 7.792969 C 7.847656 7.652344 7.839844 7.507812 7.839844 7.363281 Z M 11.617188 12.089844 C 12.984375 11.859375 14.351562 11.140625 15.410156 10.074219 C 15.777344 9.703125 16.109375 9.300781 16.398438 8.867188 L 16.058594 10.535156 C 16.015625 10.578125 15.976562 10.625 15.929688 10.667969 C 15.066406 11.535156 14.023438 12.203125 12.878906 12.621094 L 11.511719 12.621094 Z M 15.636719 12.621094 L 13.914062 12.621094 C 14.640625 12.261719 15.3125 11.800781 15.914062 11.253906 Z M 18.472656 5.335938 C 18.464844 5.496094 18.453125 5.660156 18.433594 5.824219 C 18.332031 6.644531 18.074219 7.46875 17.679688 8.261719 L 16.765625 8.261719 C 17.144531 7.5625 17.398438 6.828125 17.503906 6.097656 C 17.539062 5.839844 17.558594 5.585938 17.558594 5.335938 Z M 20.859375 0.207031 C 21.050781 0.539062 21.214844 0.882812 21.355469 1.242188 C 21.585938 1.832031 21.75 2.453125 21.839844 3.09375 L 20.355469 3.09375 C 20.113281 2.03125 19.628906 1.042969 18.9375 0.207031 Z M 21.324219 0.207031 L 22.5 0.207031 L 22.089844 2.230469 C 21.921875 1.527344 21.667969 0.84375 21.324219 0.207031 Z M 20.5 5.660156 C 20.507812 5.550781 20.519531 5.441406 20.527344 5.335938 L 21.355469 5.335938 L 20.769531 8.261719 L 19.832031 8.261719 C 20.175781 7.433594 20.402344 6.554688 20.5 5.660156 Z M 20.117188 5.335938 C 20.109375 5.429688 20.101562 5.523438 20.09375 5.617188 C 20 6.507812 19.761719 7.398438 19.386719 8.261719 L 18.132812 8.261719 C 18.5 7.484375 18.738281 6.679688 18.835938 5.875 C 18.859375 5.691406 18.875 5.511719 18.878906 5.335938 Z M 10.691406 5.382812 C 10.855469 5.214844 11.039062 5.078125 11.226562 4.964844 L 10.664062 7.792969 L 10.226562 7.792969 C 10.054688 7.546875 9.96875 7.253906 9.972656 6.957031 C 9.972656 6.410156 10.226562 5.851562 10.691406 5.382812 Z M 0 19.660156 L 0 17.582031 L 1.019531 17.582031 L 1.019531 17.738281 L 0.183594 17.738281 L 0.183594 18.496094 L 0.964844 18.496094 L 0.964844 18.652344 L 0.183594 18.652344 L 0.183594 19.503906 L 1.046875 19.503906 L 1.046875 19.660156 Z M 2.230469 19.660156 L 2.230469 17.582031 L 3.25 17.582031 L 3.25 17.738281 L 2.414062 17.738281 L 2.414062 18.496094 L 3.195312 18.496094 L 3.195312 18.652344 L 2.414062 18.652344 L 2.414062 19.660156 Z M 7.132812 18.113281 L 6.949219 18.113281 C 6.949219 17.859375 6.835938 17.703125 6.582031 17.703125 C 6.328125 17.703125 6.191406 17.871094 6.191406 18.078125 C 6.191406 18.695312 7.1875 18.359375 7.1875 19.085938 C 7.1875 19.492188 6.941406 19.695312 6.566406 19.695312 C 6.175781 19.695312 5.96875 19.488281 5.96875 19.078125 L 5.96875 19.015625 L 6.152344 19.015625 L 6.152344 19.09375 C 6.152344 19.363281 6.285156 19.539062 6.558594 19.539062 C 6.824219 19.539062 7.003906 19.40625 7.003906 19.117188 C 7.003906 18.496094 6.007812 18.851562 6.007812 18.097656 C 6.007812 17.769531 6.21875 17.546875 6.574219 17.546875 C 6.957031 17.546875 7.132812 17.742188 7.132812 18.113281 Z M 8.765625 19.660156 L 8.765625 17.738281 L 8.238281 17.738281 L 8.238281 17.582031 L 9.480469 17.582031 L 9.480469 17.738281 L 8.949219 17.738281 L 8.949219 19.660156 Z M 10.289062 19.660156 L 10.894531 17.582031 L 11.125 17.582031 L 11.734375 19.660156 L 11.539062 19.660156 L 11.371094 19.054688 L 10.648438 19.054688 L 10.484375 19.660156 Z M 10.691406 18.898438 L 11.328125 18.898438 L 11.011719 17.726562 L 11.007812 17.726562 Z M 12.84375 19.660156 L 12.84375 17.582031 L 13.089844 17.582031 L 13.875 19.390625 L 13.882812 19.390625 L 13.882812 17.582031 L 14.066406 17.582031 L 14.066406 19.660156 L 13.820312 19.660156 L 13.03125 17.851562 L 13.027344 17.851562 L 13.027344 19.660156 Z M 15.339844 19.660156 L 15.339844 17.582031 L 15.835938 17.582031 C 16.433594 17.582031 16.582031 17.941406 16.582031 18.621094 C 16.582031 19.300781 16.433594 19.660156 15.835938 19.660156 Z M 15.523438 17.738281 L 15.523438 19.503906 L 15.824219 19.503906 C 16.226562 19.503906 16.394531 19.300781 16.394531 18.625 C 16.394531 17.941406 16.226562 17.738281 15.824219 17.738281 Z M 17.671875 19.660156 L 18.28125 17.582031 L 18.507812 17.582031 L 19.117188 19.660156 L 18.921875 19.660156 L 18.753906 19.054688 L 18.035156 19.054688 L 17.867188 19.660156 Z M 18.074219 18.898438 L 18.714844 18.898438 L 18.398438 17.726562 L 18.390625 17.726562 Z M 20.226562 19.660156 L 20.226562 17.582031 L 20.839844 17.582031 C 21.1875 17.582031 21.371094 17.777344 21.371094 18.101562 C 21.371094 18.351562 21.273438 18.578125 21 18.628906 L 21 18.636719 C 21.257812 18.660156 21.34375 18.804688 21.351562 19.128906 L 21.359375 19.355469 C 21.359375 19.46875 21.371094 19.578125 21.445312 19.660156 L 21.226562 19.660156 C 21.1875 19.585938 21.175781 19.484375 21.175781 19.367188 L 21.167969 19.195312 C 21.152344 18.828125 21.09375 18.710938 20.757812 18.710938 L 20.410156 18.710938 L 20.410156 19.660156 Z M 20.410156 17.738281 L 20.410156 18.554688 L 20.726562 18.554688 C 21.019531 18.554688 21.1875 18.421875 21.1875 18.148438 C 21.1875 17.890625 21.082031 17.738281 20.746094 17.738281 Z M 22.617188 19.660156 L 22.617188 17.582031 L 23.113281 17.582031 C 23.710938 17.582031 23.859375 17.941406 23.859375 18.621094 C 23.859375 19.300781 23.710938 19.660156 23.113281 19.660156 Z M 22.800781 17.738281 L 22.800781 19.503906 L 23.101562 19.503906 C 23.503906 19.503906 23.675781 19.300781 23.675781 18.625 C 23.675781 17.941406 23.503906 17.738281 23.101562 17.738281 Z M 26.984375 19.660156 L 26.984375 17.582031 L 28.003906 17.582031 L 28.003906 17.738281 L 27.171875 17.738281 L 27.171875 18.496094 L 27.949219 18.496094 L 27.949219 18.652344 L 27.171875 18.652344 L 27.171875 19.503906 L 28.03125 19.503906 L 28.03125 19.660156 Z M 29.214844 19.660156 L 29.214844 17.582031 L 29.460938 17.582031 L 30.25 19.390625 L 30.253906 19.390625 L 30.253906 17.582031 L 30.4375 17.582031 L 30.4375 19.660156 L 30.191406 19.660156 L 29.40625 17.851562 L 29.398438 17.851562 L 29.398438 19.660156 Z M 32.78125 18.757812 L 32.292969 18.757812 L 32.292969 18.601562 L 32.953125 18.601562 L 32.953125 19.660156 L 32.808594 19.660156 L 32.808594 19.316406 L 32.804688 19.316406 C 32.738281 19.550781 32.558594 19.695312 32.351562 19.695312 C 31.929688 19.695312 31.695312 19.367188 31.695312 18.621094 C 31.695312 17.875 31.929688 17.546875 32.351562 17.546875 C 32.742188 17.546875 32.917969 17.804688 32.941406 18.164062 L 32.757812 18.164062 C 32.757812 17.914062 32.621094 17.703125 32.351562 17.703125 C 32.058594 17.703125 31.878906 17.945312 31.878906 18.621094 C 31.878906 19.296875 32.058594 19.539062 32.351562 19.539062 C 32.628906 19.539062 32.78125 19.289062 32.78125 18.800781 Z M 34.210938 19.660156 L 34.210938 17.582031 L 34.394531 17.582031 L 34.394531 19.503906 L 35.246094 19.503906 L 35.246094 19.660156 Z M 36.398438 19.660156 L 36.398438 17.582031 L 36.582031 17.582031 L 36.582031 19.660156 Z M 38.953125 18.113281 L 38.769531 18.113281 C 38.769531 17.859375 38.652344 17.703125 38.398438 17.703125 C 38.148438 17.703125 38.011719 17.871094 38.011719 18.078125 C 38.011719 18.695312 39.007812 18.359375 39.007812 19.085938 C 39.007812 19.492188 38.757812 19.695312 38.386719 19.695312 C 37.996094 19.695312 37.785156 19.488281 37.785156 19.078125 L 37.785156 19.015625 L 37.96875 19.015625 L 37.96875 19.09375 C 37.96875 19.363281 38.105469 19.539062 38.378906 19.539062 C 38.640625 19.539062 38.824219 19.40625 38.824219 19.117188 C 38.824219 18.496094 37.824219 18.851562 37.824219 18.097656 C 37.824219 17.769531 38.035156 17.546875 38.394531 17.546875 C 38.777344 17.546875 38.953125 17.742188 38.953125 18.113281 Z M 41.1875 19.660156 L 41.1875 18.625 L 40.382812 18.625 L 40.382812 19.660156 L 40.199219 19.660156 L 40.199219 17.582031 L 40.382812 17.582031 L 40.382812 18.464844 L 41.1875 18.464844 L 41.1875 17.582031 L 41.371094 17.582031 L 41.371094 19.660156 Z M 44.796875 19.660156 L 44.796875 17.738281 L 44.265625 17.738281 L 44.265625 17.582031 L 45.511719 17.582031 L 45.511719 17.738281 L 44.980469 17.738281 L 44.980469 19.660156 Z M 46.640625 19.660156 L 46.640625 17.582031 L 47.660156 17.582031 L 47.660156 17.738281 L 46.824219 17.738281 L 46.824219 18.496094 L 47.605469 18.496094 L 47.605469 18.652344 L 46.824219 18.652344 L 46.824219 19.503906 L 47.683594 19.503906 L 47.683594 19.660156 Z M 49.953125 18.113281 L 49.769531 18.113281 C 49.769531 17.859375 49.65625 17.703125 49.402344 17.703125 C 49.148438 17.703125 49.011719 17.871094 49.011719 18.078125 C 49.011719 18.695312 50.007812 18.359375 50.007812 19.085938 C 50.007812 19.492188 49.761719 19.695312 49.386719 19.695312 C 49 19.695312 48.789062 19.488281 48.789062 19.078125 L 48.789062 19.015625 L 48.972656 19.015625 L 48.972656 19.09375 C 48.972656 19.363281 49.109375 19.539062 49.382812 19.539062 C 49.644531 19.539062 49.824219 19.40625 49.824219 19.117188 C 49.824219 18.496094 48.828125 18.851562 48.828125 18.097656 C 48.828125 17.769531 49.039062 17.546875 49.394531 17.546875 C 49.777344 17.546875 49.953125 17.742188 49.953125 18.113281 Z M 51.585938 19.660156 L 51.585938 17.738281 L 51.058594 17.738281 L 51.058594 17.582031 L 52.300781 17.582031 L 52.300781 17.738281 L 51.769531 17.738281 L 51.769531 19.660156 Z M 51.585938 19.660156 "/>
</g>
</svg>
